<svg id="Warstwa_1" data-name="Warstwa 1" xmlns="http://www.w3.org/2000/svg" viewBox="0 0 375.45 375.56"><defs><style>.cls-1{opacity:0.87;}.cls-2{fill:#201e24;}</style></defs><g class="cls-1"><path class="cls-2" d="M195.68,6.6c3.42,1.59,5,4.3,4.43,8-1.42,8.76,2,14.37,9,20.13,26.76,22,42.91,50.63,49.19,84.62,1.72,9.32,2,18.93,2.44,28.43s.09,19,.09,29c3.19,0,6.08-.06,9,0,4.26.1,6.86,2.46,6.82,6-.05,3.43-2.54,5.8-6.61,5.81q-25.49.1-51,0c-4.3,0-6.81-2.4-6.74-6s2.61-5.82,7-5.85c8.31-.06,16.62,0,24.93,0h4c.24-.55.51-.86.5-1.18-.53-17.07.35-34.34-1.93-51.18-4.39-32.47-20.25-59.24-45.1-80.64a10.85,10.85,0,0,0-1.24-.76V200.73h4.15q25.86,0,51.71,0c14.91,0,25.18,7.68,29.57,22,2,6.41,4,12.8,5.88,19.25.6,2.08,1.56,2.89,3.81,2.83,6.23-.15,12.47-.11,18.7,0,4.85.06,7,2.1,7,6.91q.1,25.65,0,51.32c0,4.38-2.29,7-5.78,7.11s-6.12-2.77-6.14-7.19c0-14.66,0-29.33,0-44,0-.6-.07-1.19-.12-2H79.05v4c0,13.69,0,27.38,0,41.06,0,1.56.12,3.65-.77,4.56-1.55,1.57-3.76,3.16-5.84,3.38-2.53.28-4.51-1.68-5.06-4.41a19.26,19.26,0,0,1-.26-3.65q0-24.37,0-48.76c0-6.49,1.8-8.26,8.26-8.29,5.63,0,11.25-.13,16.87.05,2.6.09,3.87-.61,4.59-3.28,1.76-6.47,3.86-12.85,5.85-19.25,4.28-13.77,14.72-21.5,29.19-21.53,17.36,0,34.72,0,52.07,0h4.15V188.62H121a31.87,31.87,0,0,1-4-.14,5.42,5.42,0,0,1-5.13-5.29c-.27-3.24,1.39-5.39,4.5-6.2a15.72,15.72,0,0,1,4-.27h67.93v-4.49q0-78.63-.05-157.27c0-3.8.87-6.72,4.52-8.35ZM108.36,244.46h171.7c-2.29-7.33-4.1-14.44-6.75-21.23-2.55-6.54-7.87-10.47-15-10.5q-64.16-.22-128.3,0c-7,0-12.26,3.85-14.81,10.2C112.48,229.79,110.69,237,108.36,244.46Z" transform="translate(-6.52 -6.6)"/><path class="cls-2" d="M382,377.64c-1.86,3.65-4.89,4.64-8.83,4.35-9-.65-15.78-3.46-27.39-11.88q-30.3,24.06-60.65.08c-25,15.95-39.61,15.95-60.47-.09-20.09,16-40.33,16.11-60.68.1-20.1,16-40.32,15.89-60.6,0-20.19,15.89-40.42,16-60.79-.21a44.76,44.76,0,0,1-25,11.7,27.32,27.32,0,0,1-5.11.26,6.07,6.07,0,0,1-5.89-5.87c0-3,2.18-5.27,5.44-5.9,4.29-.83,8.94-1,12.74-2.89a49.8,49.8,0,0,0,12.16-9.06c4.53-4.39,7.46-4.7,11.61,0,14,15.83,35.38,15.82,49.18,0,3.94-4.52,7.34-4.57,11.3-.14,14.43,16.1,34.88,16.1,49.4,0,4-4.44,7.35-4.4,11.29.13,13.8,15.85,35.35,15.85,49.17,0,4-4.55,7.28-4.59,11.29-.14,14.51,16.09,35,16.09,49.4,0,3.95-4.41,7.39-4.38,11.31.13,13.66,15.73,35.21,15.87,48.93.31,4.37-5,7.58-5.06,11.73-.13,5.9,7,13.33,11,22.46,11.53,3.4.2,6.14,1.17,8,4.08Z" transform="translate(-6.52 -6.6)"/><path class="cls-2" d="M382,330c-2.06,3.48-5.11,4.31-9,4a45.28,45.28,0,0,1-27.21-12c-18,16.18-42.92,15.92-60.71,0-8.45,7.71-18.46,12.05-30,12.12S233.31,330,224.55,321.9C216,329.68,206,334,194.41,334.06S172.7,330,164,321.85c-8.58,7.95-18.61,12.23-30.18,12.22s-21.7-4.13-30.4-12.21c-8.59,7.87-18.65,12.17-30.23,12.2s-21.68-4.2-30.37-12.16c-6.28,5.57-13.28,9.62-21.51,11.2a61.68,61.68,0,0,1-6.9.88c-4.68.34-7.72-1.9-7.87-5.66-.13-3.51,2.63-5.5,7.08-6.41a67.86,67.86,0,0,0,15.19-4.6c3.26-1.54,5.86-4.68,8.47-7.38,3.76-3.91,7.51-4.27,10.82,0a31.82,31.82,0,0,0,50,0c3.38-4.22,7.33-4.14,10.73.14a31.71,31.71,0,0,0,49.7,0c3.43-4.37,7.26-4.13,11,.1,14.26,16.06,35,16.06,49.4,0,3.9-4.35,7.38-4.3,11.28.17,13.74,15.71,35.18,15.83,48.94.27,4.39-4.95,7.56-4.92,12,.13,13.51,15.36,35.27,15.23,48.7-.28,4-4.66,7.63-4.75,11.51-.13,6.05,7.22,13.65,11.31,23.11,11.69a8.41,8.41,0,0,1,7.5,4.34Z" transform="translate(-6.52 -6.6)"/><path class="cls-2" d="M146.75,282.13c-2.31,7.41-4.51,14.49-6.72,21.56a16.18,16.18,0,0,1-1.16,3.07c-1.57,2.78-4,4-7.07,2.93s-4.59-3.41-3.88-6.58c.84-3.8,2.1-7.51,3.24-11.24,1.66-5.48,3.37-10.95,5.07-16.42,1.87-6,4-7.19,10-5.75,17.73,4.22,35.63,8.18,53.92,6.55,14.16-1.27,28.19-4.21,42.22-6.67,5.69-1,8,0,9.69,5.38q4,12.75,7.86,25.52a11.51,11.51,0,0,1,.72,3.93,5.66,5.66,0,0,1-4.94,5.57c-3.38.56-5.66-1.2-6.69-4.38-2.17-6.72-4.23-13.49-6.34-20.23-.29-.93-.61-1.84-1.05-3.17-15.6,3.63-31.33,6.35-47.33,6.34S162.72,286,146.75,282.13Z" transform="translate(-6.52 -6.6)"/></g></svg>